<?xml version="1.0" encoding="utf-8"?>
<!-- Generator: Adobe Illustrator 26.2.1, SVG Export Plug-In . SVG Version: 6.00 Build 0)  -->
<svg version="1.1" id="Layer_1" xmlns="http://www.w3.org/2000/svg" xmlns:xlink="http://www.w3.org/1999/xlink" x="0px" y="0px"
	 viewBox="0 0 194 32" style="enable-background:new 0 0 194 32;" xml:space="preserve">
<style type="text/css">
	.st0{fill-rule:evenodd;clip-rule:evenodd;fill:#454545;}
	.st1{fill:#454545;}
	.st2{fill-rule:evenodd;clip-rule:evenodd;fill:#009A13;}
</style>
<desc>Created with Sketch.</desc>
<g>
	<path class="st0" d="M151.5,17.8c-0.1-0.1-0.3,0-0.4,0.1c-0.8,1.3-2.3,2.2-4,2.2c-2.2,0-4-1.5-4.6-3.5h2.9h6.3h3.7
		c0.2,0,0.3-0.1,0.3-0.3c0-0.3,0.1-0.6,0.1-1c0-4.9-4.1-8.8-9-8.6c-4.4,0.2-8,3.8-8.2,8.2c-0.2,4.9,3.7,9,8.6,9c3.1,0,5.8-1.6,7.3-4
		c0.1-0.2,0-0.3-0.1-0.4L151.5,17.8z M147.1,10.5c2,0,3.6,1.2,4.4,2.9h-8.7C143.4,11.7,145.1,10.5,147.1,10.5z"/>
	<path class="st0" d="M136.3,19.9c-2.5-0.3-3.9-2-3.9-4.5v-5h3.7c0.2,0,0.3-0.1,0.3-0.3V7.2c0-0.2-0.1-0.3-0.3-0.3h-3.7V2.1
		c0-0.2-0.1-0.3-0.3-0.3h-3.4c-0.2,0-0.3,0.1-0.3,0.3v13.8c0,4.3,3.5,7.8,7.8,7.8h0.2c0.1,0,0.2-0.1,0.2-0.2v-3.4
		C136.4,20,136.3,19.9,136.3,19.9z"/>
	<path class="st1" d="M170.4,17.4c-0.9,1.4-2.5,2.2-4.3,2.1c-2.2-0.2-4.1-2-4.3-4.2c-0.3-2.9,1.9-5.3,4.7-5.3c1.7,0,3.1,0.9,4,2.2
		c0.1,0.1,0.3,0.2,0.4,0.1l2.8-1.6c0.2-0.1,0.2-0.3,0.1-0.4c-1.6-2.6-4.6-4.3-7.9-4c-4.4,0.3-7.9,4-8.1,8.4
		c-0.1,4.9,3.8,8.9,8.6,8.9c3.1,0,5.8-1.6,7.3-4c0.1-0.1,0-0.3-0.1-0.4l-2.8-1.6C170.6,17.3,170.4,17.3,170.4,17.4z"/>
	<path class="st0" d="M192.3,14.3c0-4.5-3.7-8.1-8.1-8.1c-1.5,0-2.9,0.6-4.2,1.5v-6c0-0.2-0.1-0.3-0.3-0.3h-3.4
		c-0.2,0-0.3,0.1-0.3,0.3v21.1c0,0.2,0.1,0.3,0.3,0.3h3.4c0.2,0,0.3-0.1,0.3-0.3l0-8.8c0-2.2,1.9-4,4.2-4c2.2,0,4,1.8,4.2,4h0l0,8.8
		c0,0.2,0.1,0.3,0.3,0.3h3.4c0.2,0,0.3-0.1,0.3-0.3V14.3L192.3,14.3L192.3,14.3z"/>
	<g>
		<path class="st2" d="M16.1,0.5C8.4,0.9,2.1,7.1,1.7,14.8c-0.3,6.3,3.2,11.8,8.5,14.4c2,1,4.3-0.2,4.7-2.4l0,0
			c0.3-1.4-0.5-2.9-1.8-3.5c-3-1.5-5-4.6-4.8-8.2c0.3-4.2,3.7-7.6,7.9-7.9c5-0.3,9.1,3.6,9.1,8.5c0,3.4-2,6.3-4.8,7.7
			c-1.3,0.6-2,2.1-1.8,3.5c0,0,0,0,0,0.1c0.4,2.1,2.7,3.3,4.6,2.4c5.1-2.4,8.5-7.6,8.5-13.6C31.9,7,24.8,0.1,16.1,0.5z"/>
		<path class="st2" d="M16.8,20.9c-2.9,0-5.3-2.4-5.3-5.3s2.4-5.3,5.3-5.3c2.9,0,5.3,2.4,5.3,5.3S19.8,20.9,16.8,20.9z"/>
	</g>
	<path class="st0" d="M99,18c-0.1-0.1-0.3,0-0.4,0.1c-0.8,1.3-2.3,2.1-4,2.1c-2.2,0-4-1.5-4.6-3.5h2.9h6.3h3.6
		c0.2,0,0.3-0.1,0.3-0.3c0-0.3,0.1-0.6,0.1-1c0-4.9-4.1-8.8-9-8.6c-4.4,0.2-8,3.8-8.2,8.2c-0.2,4.9,3.7,9,8.6,9c3.1,0,5.8-1.6,7.3-4
		c0.1-0.2,0-0.3-0.1-0.4L99,18z M94.6,10.8c2,0,3.6,1.2,4.4,2.9h-8.7C90.9,12,92.6,10.8,94.6,10.8z"/>
	<path class="st0" d="M68.9,7c-4.7,0-8.6,3.8-8.6,8.6c0,4.7,3.8,8.6,8.6,8.6s8.6-3.8,8.6-8.6C77.4,10.8,73.6,7,68.9,7z M68.9,20.3
		c-2.6,0-4.7-2.1-4.7-4.7c0-2.6,2.1-4.7,4.7-4.7c2.6,0,4.7,2.1,4.7,4.7C73.6,18.2,71.5,20.3,68.9,20.3z"/>
	<path class="st0" d="M83.4,7.2H80c-0.2,0-0.3,0.1-0.3,0.3l0,15.8c0,1.5-0.5,2.6-1.5,3.4c-0.6,0.5-1.4,0.9-2.3,1
		c-0.2,0-0.3,0.2-0.3,0.3v3.1c0,0.2,0.1,0.3,0.3,0.3h0c4.3,0,7.8-3.5,7.8-7.8l0-16.2C83.8,7.3,83.6,7.2,83.4,7.2z"/>
	<path class="st0" d="M57.7,7.2h-3.4c-0.2,0-0.3,0.1-0.3,0.3v0.4l0,0v0.7c-0.6-0.7-1.6-1.1-2-1.2c-0.9-0.3-1.8-0.4-2.8-0.4
		c-4.7,0-8.5,3.8-8.6,8.5c-0.1,4.8,3.8,8.7,8.6,8.7c1,0,1.9-0.2,2.7-0.4c0.4-0.1,1.4-0.5,2-1.2v0.7l0,0v0.2c0,1.5-0.5,2.6-1.5,3.4
		c-0.8,0.7-2,1.1-3.3,1.1c0,0,0,0,0,0c-1.9,0-3.7-0.8-4.7-2c-0.1-0.1-0.3-0.1-0.5,0L41.7,28c-0.1,0.1-0.1,0.3,0,0.4
		c1.9,2,4.5,3,7.5,3h1c4.3,0,7.8-3.5,7.8-7.8v-1.5c0,0,0,0,0,0l0-14.7C58,7.3,57.9,7.2,57.7,7.2z M53.9,15.6c0,2.6-2.1,4.6-4.7,4.6
		c-2.6,0-4.7-2.1-4.7-4.7c0-2.6,2.1-4.7,4.7-4.7C51.8,10.8,53.9,12.9,53.9,15.6L53.9,15.6z"/>
	<path class="st0" d="M117.7,23.8c-0.1,0-0.1,0-0.1-0.1l-5.3-7.1l-2.8,2.7v4.3c0,0.1-0.1,0.2-0.2,0.2h-3.7c-0.1,0-0.2-0.1-0.2-0.2
		V2.3c0-0.1,0.1-0.2,0.2-0.2h3.7c0.1,0,0.2,0.1,0.2,0.2v11.8l7.1-6.9c0,0,0.1,0,0.1,0h4.9c0.1,0,0.1,0.1,0.2,0.1c0,0,0,0.1,0,0.2
		L115,14l7.1,9.6c0,0.1,0,0.1,0,0.2c0,0.1-0.1,0.1-0.2,0.1H117.7z"/>
</g>
</svg>
